<svg xmlns="http://www.w3.org/2000/svg" width="17.322" height="17.322" viewBox="0 0 17.322 17.322">
  <g id="vuesax_outline_search-normal" data-name="vuesax/outline/search-normal" transform="translate(-108 -188)" opacity="0.6">
    <g id="search-normal" transform="translate(108 188)">
      <path id="Vector" d="M0,0H17.322V17.322H0Z" fill="none" opacity="0"/>
      <path id="Union_34" data-name="Union 34" d="M1692.477,14517.373l-3.091-3.091a7.037,7.037,0,1,1,.823-.872l3.117,3.114a.6.6,0,0,1,0,.849.612.612,0,0,1-.426.175A.6.6,0,0,1,1692.477,14517.373Zm-13.732-8.336a5.953,5.953,0,1,0,5.953-5.953A5.96,5.96,0,0,0,1678.745,14509.037Z" transform="translate(-1676.759 -14501.098)" fill="#fff"/>
    </g>
  </g>
</svg>
