<svg xmlns="http://www.w3.org/2000/svg" xmlns:xlink="http://www.w3.org/1999/xlink" width="33" height="33" viewBox="0 0 33 33">
  <defs>
    <linearGradient id="linear-gradient" x1="1" y1="1" x2="0.011" gradientUnits="objectBoundingBox">
      <stop offset="0" stop-color="#f9ec80"/>
      <stop offset="1" stop-color="#f57f20"/>
    </linearGradient>
  </defs>
  <g id="Group_1755" data-name="Group 1755" transform="translate(-459.5 -924.5)">
    <rect id="Rectangle_1264" data-name="Rectangle 1264" width="32" height="32" rx="8" transform="translate(460 925)" stroke="rgba(0,0,0,0)" stroke-width="1" fill="url(#linear-gradient)"/>
    <path id="Union_32" data-name="Union 32" d="M3.343,11.429V9.561H18.085v1.868ZM0,11.429V0H6.365a1.858,1.858,0,0,1,.979.268,2.017,2.017,0,0,1,.7.707,1.837,1.837,0,0,1,.262.972V6.235a1.847,1.847,0,0,1-.262.974,2.039,2.039,0,0,1-.7.706,1.877,1.877,0,0,1-.979.269H1.849v3.245ZM1.9,1.9a.159.159,0,0,0-.05.119V6.165a.161.161,0,0,0,.05.121.165.165,0,0,0,.118.048H6.293a.167.167,0,0,0,.17-.169V2.017a.167.167,0,0,0-.05-.119.157.157,0,0,0-.12-.05H2.017A.156.156,0,0,0,1.9,1.9Zm9.809,6.286a1.838,1.838,0,0,1-.975-.269,2.128,2.128,0,0,1-.705-.706,1.826,1.826,0,0,1-.269-.974v-.31h1.85v.239a.166.166,0,0,0,.048.121.176.176,0,0,0,.121.048h4.275a.173.173,0,0,0,.12-.048.17.17,0,0,0,.048-.121V5.191a.168.168,0,0,0-.048-.119.163.163,0,0,0-.12-.05H11.707a1.827,1.827,0,0,1-.975-.267,2.159,2.159,0,0,1-.705-.707,1.83,1.83,0,0,1-.269-.973V1.946a1.816,1.816,0,0,1,.269-.972,2.1,2.1,0,0,1,.705-.707A1.82,1.82,0,0,1,11.707,0h4.416a1.839,1.839,0,0,1,.987.268,2.076,2.076,0,0,1,.7.707,1.809,1.809,0,0,1,.271.972v.311H16.221v-.24a.169.169,0,0,0-.048-.119.163.163,0,0,0-.12-.05H11.777a.167.167,0,0,0-.169.169V2.99a.163.163,0,0,0,.048.12.172.172,0,0,0,.121.049h4.346a1.849,1.849,0,0,1,.987.269,2.1,2.1,0,0,1,.7.705,1.823,1.823,0,0,1,.271.974V6.235a1.819,1.819,0,0,1-.271.974,2.1,2.1,0,0,1-.7.706,1.858,1.858,0,0,1-.987.269Z" transform="translate(466.857 935.286)" fill="#fff"/>
  </g>
</svg>
