<svg xmlns="http://www.w3.org/2000/svg" width="137" height="51" viewBox="0 0 137 51" fill="none" style="user-select: auto;"><path d="M127.095 39.8421H21.7541C16.3066 39.8421 11.8496 35.3851 11.8496 29.9377C11.8496 24.4902 16.3066 20.0332 21.7541 20.0332H127.095C132.543 20.0332 137 24.4902 137 29.9377C137 35.4087 132.543 39.8421 127.095 39.8421Z" fill="#102548" style="user-select: auto;"></path><path d="M46.3741 7.95895C35.7622 -2.65298 18.5709 -2.65298 7.95895 7.95895C-2.65298 18.5709 -2.65298 35.7622 7.95895 46.3741C8.05328 46.4685 8.17118 46.5628 8.26551 46.6571L46.6571 8.26551C46.5864 8.17118 46.492 8.07686 46.3741 7.95895Z" fill="url(#paint0_linear)" style="user-select: auto;"></path><path d="M39.2521 16.7317C33.0265 10.5061 22.9569 10.5061 16.7313 16.7317C10.5056 22.9574 10.5056 33.027 16.7313 39.2526C16.7784 39.2998 16.8492 39.3705 16.9199 39.4177L39.4172 16.9204C39.3465 16.8497 39.2993 16.7789 39.2521 16.7317Z" fill="white" style="user-select: auto;"></path><path d="M10.86 43.2848C19.8212 52.246 34.3477 52.246 43.3089 43.2848C52.2701 34.3237 52.2701 19.7971 43.3089 10.8359C43.2146 10.7416 43.1438 10.6708 43.0495 10.6001L10.6006 43.0254C10.6949 43.1198 10.7657 43.2141 10.86 43.2848Z" fill="#9C8AC1" style="user-select: auto;"></path><path d="M19.0662 34.819C23.4053 39.1581 30.4799 39.1581 34.819 34.819C39.1581 30.4799 39.1581 23.4053 34.819 19.0662C34.7718 19.019 34.7246 18.9954 34.7011 18.9482L18.9482 34.7011C18.9954 34.7482 19.0426 34.7718 19.0662 34.819Z" fill="#102548" style="user-select: auto;"></path><path d="M27.1785 31.4464C29.5359 31.4464 31.4469 29.5354 31.4469 27.178C31.4469 24.8207 29.5359 22.9097 27.1785 22.9097C24.8212 22.9097 22.9102 24.8207 22.9102 27.178C22.9102 29.5354 24.8212 31.4464 27.1785 31.4464Z" fill="url(#paint1_linear)" style="user-select: auto;"></path><path d="M57.67 23.6177H61.8204C62.9288 23.6177 63.8013 23.8299 64.4616 24.2544C65.0983 24.6789 65.4992 25.2684 65.6171 26.0466C65.7586 26.9192 65.57 27.721 65.0983 28.452C64.8153 29.018 64.3909 29.466 63.7777 29.8433C63.1882 30.1971 62.4571 30.4565 61.6082 30.5744L63.99 35.1965H62.4807L60.1932 30.7159H57.0568L55.8541 35.1965H54.5571L57.67 23.6177ZM60.547 29.5368C61.3959 29.5368 62.1034 29.4189 62.6929 29.1595C63.2825 28.9001 63.707 28.5699 63.9428 28.1454C64.2965 27.6738 64.438 27.1314 64.3909 26.5183C64.3437 25.9995 64.0843 25.575 63.6598 25.2684C63.2353 24.9619 62.5986 24.8204 61.7497 24.8204H58.6368L57.3634 29.5368H60.547Z" fill="white" style="user-select: auto;"></path><path d="M67.999 31.518C67.999 31.5652 67.999 31.636 67.999 31.6831C67.999 32.4613 68.2348 33.098 68.7065 33.5461C69.1781 34.0177 69.7913 34.2536 70.593 34.2536C71.1354 34.2536 71.6307 34.1592 72.0316 33.9942C72.4324 33.8291 72.8333 33.5697 73.2107 33.2395L73.8709 34.0885C73.4465 34.4422 72.9748 34.7488 72.456 34.9846C71.9136 35.244 71.2769 35.3619 70.5223 35.3619C69.9563 35.3619 69.4375 35.2676 68.9895 35.1025C68.5178 34.9374 68.1169 34.678 67.7868 34.3715C67.4566 34.0413 67.1972 33.664 67.0086 33.2159C66.8199 32.7679 66.7256 32.2727 66.7256 31.7303C66.7256 31.07 66.8435 30.4333 67.1029 29.7966C67.3387 29.1598 67.6925 28.5939 68.1405 28.0986C68.5886 27.6034 69.1074 27.2025 69.7205 26.896C70.3336 26.5894 70.9939 26.4243 71.7014 26.4243C72.2438 26.4243 72.7154 26.5186 73.1399 26.6837C73.5644 26.8488 73.8945 27.0846 74.1775 27.3912C74.4605 27.6977 74.6727 28.0279 74.8142 28.4288C74.9557 28.8297 75.0265 29.2542 75.0265 29.6786C75.0265 29.9616 75.0029 30.2446 74.9557 30.504C74.9086 30.7634 74.8378 31.0464 74.7435 31.2822L68.0698 31.3058C67.999 31.4001 67.999 31.4473 67.999 31.518ZM73.6587 30.3861C73.7059 30.221 73.7295 30.0088 73.7295 29.7258C73.7295 29.4192 73.6823 29.1363 73.6116 28.8769C73.5172 28.6174 73.3993 28.3816 73.2107 28.1694C73.0456 27.9807 72.8098 27.8157 72.5504 27.6977C72.291 27.5798 71.9608 27.5091 71.6071 27.5091C71.1826 27.5091 70.8053 27.5798 70.428 27.7449C70.0507 27.8864 69.7205 28.0986 69.4375 28.358C69.1545 28.6174 68.8951 28.924 68.6829 29.2777C68.4707 29.6315 68.3056 30.0088 68.1877 30.4097L73.6587 30.3861Z" fill="white" style="user-select: auto;"></path><path d="M79.2473 23.5942H83.5628C84.6948 23.5942 85.5673 23.8301 86.204 24.3253C86.8172 24.7969 87.1473 25.4572 87.1473 26.2826C87.1473 26.7071 87.0766 27.0844 86.9351 27.4145C86.7936 27.7447 86.5813 28.0512 86.3455 28.3107C86.0861 28.5701 85.7795 28.7823 85.4258 28.9474C85.0721 29.136 84.6948 29.2539 84.2939 29.3247C84.8598 29.4898 85.3551 29.7727 85.756 30.1736C86.1569 30.5509 86.3455 31.0698 86.3455 31.7301C86.3455 32.2253 86.2276 32.6733 86.0154 33.0978C85.8031 33.5223 85.473 33.876 85.0485 34.1826C84.624 34.4892 84.1288 34.725 83.5157 34.89C82.9261 35.0551 82.2422 35.1495 81.4876 35.1495H76.1816L79.2473 23.5942ZM81.6055 33.9939C82.6431 33.9939 83.4685 33.7817 84.0816 33.3808C84.6948 32.9799 84.9777 32.3903 84.9777 31.6829C84.9777 31.3763 84.907 31.1169 84.7891 30.9047C84.6476 30.6924 84.4825 30.5038 84.2467 30.3623C84.0109 30.2208 83.7279 30.1029 83.3978 30.0321C83.0676 29.9614 82.7139 29.9142 82.3366 29.9378H78.8464L77.7616 34.0411L81.6055 33.9939ZM82.4309 28.7351C83.4685 28.7351 84.2939 28.5229 84.907 28.0984C85.5201 27.6739 85.8267 27.108 85.8267 26.4241C85.8267 25.8817 85.6145 25.4572 85.2136 25.1742C84.8127 24.8913 84.2231 24.7498 83.4685 24.7498H80.2142L79.153 28.7351H82.4309Z" fill="white" style="user-select: auto;"></path><path d="M89.4824 35.1494C89.1523 35.0551 88.8693 34.89 88.6335 34.7013C88.3741 34.5127 88.1854 34.2533 88.0439 33.9703C87.9024 33.6873 87.8081 33.3336 87.8081 32.9563C87.8081 32.4846 87.9024 32.0601 88.0911 31.6592C88.2797 31.2819 88.5392 30.9518 88.8929 30.6924C89.223 30.433 89.6239 30.2207 90.0956 30.0792C90.5672 29.9378 91.0624 29.867 91.6048 29.867C92.1708 29.867 92.7132 29.9142 93.232 30.0085C93.7508 30.1028 94.2224 30.1972 94.6469 30.3386L94.6941 30.15C94.7177 30.0321 94.7648 29.8906 94.7648 29.7491C94.7884 29.6076 94.7884 29.4661 94.7884 29.3482C94.7884 28.7822 94.5997 28.3578 94.2224 28.0512C93.8451 27.7446 93.2556 27.6031 92.4774 27.6031C92.0057 27.6031 91.6048 27.6503 91.2039 27.721C90.8266 27.8154 90.4493 27.9097 90.0484 28.0512L89.8362 26.99C90.2606 26.8249 90.6851 26.707 91.1332 26.6127C91.5812 26.5184 92.1 26.4712 92.6424 26.4712C93.7272 26.4712 94.5526 26.707 95.1185 27.1787C95.7081 27.6503 95.9911 28.287 95.9911 29.1124C95.9911 29.301 95.9675 29.4897 95.9439 29.7019C95.9203 29.8906 95.8732 30.1028 95.8024 30.2915L94.529 35.1258H93.3027L93.6565 33.7816C93.2556 34.2533 92.8075 34.607 92.2887 34.89C91.7699 35.173 91.1568 35.3145 90.4729 35.3145C90.1427 35.3145 89.8126 35.2437 89.4824 35.1494ZM91.9821 34.1118C92.3359 33.9939 92.666 33.8052 92.9726 33.593C93.2791 33.3807 93.5386 33.0978 93.7744 32.7912C94.0102 32.4846 94.1753 32.1309 94.2696 31.7536L94.4347 31.164C94.0574 31.0461 93.6329 30.9754 93.1612 30.9046C92.6896 30.8339 92.1944 30.8103 91.652 30.8103C91.2747 30.8103 90.9209 30.8575 90.6144 30.9518C90.3078 31.0461 90.0248 31.1876 89.8126 31.3763C89.6003 31.5413 89.4117 31.7536 89.2938 32.013C89.1759 32.2488 89.1051 32.5318 89.1051 32.8148C89.1051 33.2864 89.2702 33.6401 89.6003 33.9231C89.9305 34.2061 90.3786 34.324 90.9209 34.324C91.2747 34.324 91.6284 34.2533 91.9821 34.1118Z" fill="white" style="user-select: auto;"></path><path d="M100.495 23.0518H101.769L99.599 31.2583L105.329 26.5655H107.074L102.5 30.2443L104.858 35.1022H103.419L101.438 31.0697L99.1745 32.8855L98.585 35.1258H97.3115L100.495 23.0518Z" fill="white" style="user-select: auto;"></path><path d="M108.442 31.4468C108.442 31.4939 108.442 31.5647 108.442 31.6118C108.442 32.39 108.678 33.0268 109.149 33.4748C109.621 33.9465 110.234 34.1823 111.036 34.1823C111.578 34.1823 112.074 34.0879 112.474 33.9229C112.875 33.7578 113.276 33.4984 113.654 33.1682L114.314 34.0172C113.889 34.3709 113.418 34.6775 112.899 34.9133C112.357 35.1727 111.72 35.2906 110.965 35.2906C110.399 35.2906 109.88 35.1963 109.432 35.0312C108.961 34.8662 108.56 34.6067 108.23 34.3002C107.9 33.97 107.64 33.5927 107.451 33.1447C107.263 32.6966 107.168 32.2014 107.168 31.659C107.168 30.9987 107.286 30.362 107.546 29.7253C107.782 29.0885 108.135 28.5226 108.583 28.0274C109.031 27.5321 109.55 27.1312 110.163 26.8247C110.777 26.5181 111.437 26.353 112.144 26.353C112.687 26.353 113.158 26.4474 113.583 26.6124C114.007 26.7775 114.337 27.0133 114.62 27.3199C114.903 27.6265 115.116 27.9566 115.257 28.3575C115.399 28.7584 115.469 29.1829 115.469 29.6074C115.469 29.8903 115.446 30.1733 115.399 30.4327C115.351 30.6921 115.281 30.9751 115.186 31.2109L108.513 31.2345C108.442 31.3053 108.442 31.376 108.442 31.4468ZM114.102 30.3148C114.149 30.1497 114.172 29.9375 114.172 29.6545C114.172 29.3479 114.125 29.065 114.054 28.8056C113.96 28.5462 113.842 28.3103 113.654 28.0981C113.488 27.9094 113.253 27.7444 112.993 27.6265C112.734 27.5085 112.404 27.4378 112.05 27.4378C111.625 27.4378 111.248 27.5085 110.871 27.6736C110.494 27.8151 110.163 28.0274 109.88 28.2868C109.597 28.5462 109.338 28.8527 109.126 29.2065C108.914 29.5602 108.748 29.9375 108.631 30.3384L114.102 30.3148Z" fill="white" style="user-select: auto;"></path><path d="M118.96 35.0079C118.535 34.8428 118.182 34.5834 117.875 34.2768C117.569 33.9703 117.333 33.5929 117.168 33.1449C117.003 32.6968 116.908 32.2016 116.908 31.6592C116.908 30.9046 117.026 30.1971 117.309 29.5604C117.569 28.9237 117.922 28.3577 118.37 27.8861C118.818 27.4144 119.314 27.0371 119.903 26.7777C120.469 26.5183 121.082 26.3768 121.695 26.3768C122.143 26.3768 122.521 26.424 122.874 26.5419C123.205 26.6598 123.511 26.8013 123.794 27.0135C124.054 27.2022 124.289 27.438 124.454 27.6974C124.643 27.9568 124.785 28.2162 124.903 28.4992L126.341 23.0518H127.614L124.407 35.1022H123.134L123.511 33.6401C123.11 34.1117 122.639 34.4891 122.12 34.8192C121.601 35.1494 120.988 35.2908 120.304 35.2908C119.832 35.2673 119.384 35.1729 118.96 35.0079ZM122.073 33.8052C122.521 33.5694 122.922 33.2864 123.275 32.9091C123.629 32.5317 123.912 32.1073 124.124 31.6356C124.337 31.164 124.454 30.6452 124.454 30.1264C124.454 29.7491 124.384 29.3953 124.266 29.0888C124.148 28.7586 123.959 28.4992 123.723 28.2634C123.488 28.0276 123.205 27.8389 122.898 27.6974C122.568 27.5559 122.214 27.4852 121.813 27.4852C121.318 27.4852 120.846 27.6031 120.398 27.8153C119.974 28.0276 119.597 28.3341 119.266 28.7115C118.936 29.0888 118.7 29.5132 118.512 30.0085C118.323 30.5037 118.252 31.0225 118.252 31.5649C118.252 31.9658 118.323 32.3195 118.417 32.6261C118.512 32.9326 118.7 33.2156 118.913 33.4514C119.125 33.6873 119.384 33.8523 119.691 33.9703C119.997 34.0882 120.304 34.1589 120.658 34.1589C121.153 34.1353 121.601 34.041 122.073 33.8052Z" fill="white" style="user-select: auto;"></path><defs style="user-select: auto;"><linearGradient id="paint0_linear" x1="-1.49758" y1="36.9177" x2="36.9176" y2="-1.49743" gradientUnits="userSpaceOnUse" style="user-select: auto;"><stop stop-color="#5786C5" style="user-select: auto;"></stop><stop offset="1" stop-color="#3869B2" style="user-select: auto;"></stop></linearGradient><linearGradient id="paint1_linear" x1="30.2206" y1="30.2201" x2="24.1843" y2="24.1838" gradientUnits="userSpaceOnUse" style="user-select: auto;"><stop stop-color="#5786C5" style="user-select: auto;"></stop><stop offset="1" stop-color="#3869B2" style="user-select: auto;"></stop></linearGradient></defs></svg>